<?xml version="1.0" encoding="UTF-8"?>
<svg id="Layer_1" xmlns="http://www.w3.org/2000/svg" version="1.1" viewBox="0 0 1024 1024">
  <!-- Generator: Adobe Illustrator 29.5.0, SVG Export Plug-In . SVG Version: 2.1.0 Build 137)  -->
  <defs>
    <style>
      .st0 {
        fill: #ee3659;
      }

      .st0, .st1, .st2, .st3 {
        fill-rule: evenodd;
      }

      .st1 {
        fill: #f26b3b;
      }

      .st4 {
        fill: #fff;
      }

      .st2 {
        fill: #e50b7a;
      }

      .st5 {
        fill: #12153e;
      }

      .st3 {
        fill: #f2e94e;
      }
    </style>
  </defs>
  <rect class="st5" x=".23" y=".23" width="1024" height="1024"/>
  <g>
    <g>
      <path class="st0" d="M350.17,393.71c21.32-1.85,31.15,7.82,29.5,29-3.59,8.93-9.43,16.1-17.5,21.5-56.29,44.62-112.29,89.62-168,135-16.53,14.73-24.86,33.23-25,55.5-31.49-37.31-29.16-72.14,7-104.5,54-43.33,108-86.67,162-130,3.93-2.46,7.93-4.63,12-6.5Z"/>
      <path class="st2" d="M365.17,304.21c-11.69-4.62-22.36-2.96-32,5-15.57,13.08-31.23,25.91-47,38.5-26.98,20.98-53.65,42.32-80,64-11.89,8.71-23.05,18.38-33.5,29-23.67,26.02-35,56.69-34,92,25.06-21.91,50.23-43.57,75.5-65,13.07-9.86,25.74-20.2,38-31,36.67-28.68,73-57.85,109-87.5,6.03-4.23,10.53-9.73,13.5-16.5,3.61-11.84.44-21.34-9.5-28.5Z"/>
      <path class="st1" d="M373.17,472.71c20.67-.49,30.17,9.51,28.5,30-2.85,7.87-7.68,14.37-14.5,19.5-52.46,42.12-104.62,84.62-156.5,127.5-8.55,10.87-9.72,22.54-3.5,35-13.51-4.72-24.68-13.06-33.5-25-9.16-15.11-8.49-29.78,2-44,5.2-5.53,10.7-10.7,16.5-15.5,50-40.67,100-81.33,150-122,3.76-1.88,7.42-3.71,11-5.5Z"/>
      <path class="st3" d="M366.17,577.71c16.55-1.11,25.89,6.56,28,23-.08,4.64-1.24,8.97-3.5,13l-9.5,9.5c-28.12,22.46-55.96,45.29-83.5,68.5-4.61,6.45-5.61,13.45-3,21,1.5,3,2,7,3.5,10-.33.33.33-.33,0,0-16.51-5.49-31.01-14.16-43.5-26-6.25-10.25-5.92-20.25,1-30,32.17-26.83,64.33-53.67,96.5-80.5,4.33-3.52,9-6.36,14-8.5Z"/>
    </g>
    <g>
      <path class="st4" d="M613.19,371.16c-2.7-2.59-4.05-5.81-4.05-9.66s1.35-7.07,4.05-9.66c2.7-2.59,6.08-3.88,10.16-3.88s7.46,1.3,10.16,3.88c2.7,2.59,4.05,5.81,4.05,9.66s-1.35,7.08-4.05,9.66c-2.7,2.59-6.09,3.88-10.16,3.88s-7.46-1.29-10.16-3.88ZM634.75,385.94v91.52h-23.13v-91.52h23.13Z"/>
      <path class="st4" d="M711.4,388.5c5.17,2.7,9.25,6.19,12.22,10.49v-13.05h23.29v92.18c0,8.48-1.71,16.05-5.12,22.71-3.41,6.66-8.54,11.95-15.36,15.86-6.83,3.91-15.09,5.86-24.78,5.86-13,0-23.65-3.03-31.97-9.09-8.32-6.06-13.03-14.32-14.12-24.78h22.96c1.21,4.18,3.82,7.52,7.85,9.99,4.02,2.48,8.89,3.72,14.62,3.72,6.72,0,12.17-2.01,16.35-6.03,4.18-4.02,6.28-10.1,6.28-18.25v-14.21c-2.97,4.3-7.08,7.88-12.31,10.74-5.23,2.86-11.21,4.3-17.92,4.3-7.71,0-14.76-1.98-21.15-5.95-6.39-3.96-11.43-9.55-15.12-16.77-3.69-7.21-5.54-15.5-5.54-24.86s1.84-17.45,5.54-24.61c3.69-7.16,8.7-12.66,15.03-16.52,6.33-3.85,13.41-5.78,21.23-5.78,6.83,0,12.83,1.35,18.01,4.05ZM720.32,417.25c-2.2-4.02-5.18-7.1-8.92-9.25-3.75-2.15-7.77-3.22-12.06-3.22s-8.26,1.05-11.89,3.14c-3.64,2.09-6.58,5.15-8.84,9.17-2.26,4.02-3.39,8.78-3.39,14.29s1.13,10.33,3.39,14.45c2.25,4.13,5.23,7.3,8.92,9.5,3.69,2.2,7.62,3.3,11.81,3.3s8.31-1.07,12.06-3.22c3.74-2.15,6.72-5.23,8.92-9.25,2.2-4.02,3.3-8.84,3.3-14.46s-1.1-10.43-3.3-14.45Z"/>
      <path class="st4" d="M771.12,371.16c-2.7-2.59-4.05-5.81-4.05-9.66s1.35-7.07,4.05-9.66c2.7-2.59,6.08-3.88,10.16-3.88s7.46,1.3,10.16,3.88c2.7,2.59,4.05,5.81,4.05,9.66s-1.35,7.08-4.05,9.66c-2.7,2.59-6.09,3.88-10.16,3.88s-7.46-1.29-10.16-3.88ZM792.68,385.94v91.52h-23.13v-91.52h23.13Z"/>
      <path class="st4" d="M885.85,408.74v19.49h-70.04v-19.49h70.04Z"/>
      <g>
        <path class="st4" d="M499.21,406.76c3.69-7.16,8.73-12.66,15.12-16.52,6.39-3.85,13.49-5.78,21.31-5.78,5.95,0,11.62,1.3,17.02,3.88,5.39,2.59,9.69,6.03,12.89,10.32v-43.45h23.46v122.25h-23.46v-13.55c-2.87,4.52-6.88,8.15-12.06,10.9-5.18,2.75-11.18,4.13-18.01,4.13-7.71,0-14.76-1.98-21.14-5.95-6.39-3.96-11.43-9.55-15.12-16.77-3.69-7.21-5.53-15.5-5.53-24.86s1.84-17.45,5.53-24.61ZM562.4,417.25c-2.2-4.02-5.18-7.1-8.92-9.25-3.75-2.15-7.76-3.22-12.06-3.22s-8.26,1.05-11.89,3.14c-3.64,2.09-6.58,5.15-8.84,9.17-2.26,4.02-3.39,8.78-3.39,14.29s1.13,10.33,3.39,14.45c2.26,4.13,5.23,7.3,8.92,9.5,3.69,2.2,7.62,3.3,11.81,3.3s8.31-1.07,12.06-3.22c3.74-2.15,6.72-5.23,8.92-9.25,2.2-4.02,3.3-8.84,3.3-14.46s-1.1-10.43-3.3-14.45Z"/>
        <g>
          <path class="st4" d="M535.06,544.11c5.23-2.81,11.2-4.21,17.92-4.21,7.82,0,14.89,1.93,21.23,5.78,6.33,3.86,11.34,9.33,15.03,16.44,3.69,7.1,5.54,15.34,5.54,24.7s-1.85,17.65-5.54,24.86c-3.69,7.22-8.7,12.8-15.03,16.77-6.33,3.97-13.41,5.95-21.23,5.95-6.72,0-12.64-1.38-17.76-4.13-5.12-2.75-9.28-6.22-12.47-10.41v56.66h-23.13v-135.13h23.13v13.22c2.97-4.18,7.07-7.68,12.31-10.49ZM567.77,572.52c-2.26-4.02-5.23-7.08-8.92-9.17-3.69-2.09-7.68-3.14-11.98-3.14s-8.12,1.07-11.81,3.22c-3.69,2.15-6.66,5.26-8.92,9.33-2.26,4.08-3.39,8.87-3.39,14.37s1.13,10.3,3.39,14.37c2.26,4.08,5.23,7.19,8.92,9.33,3.69,2.15,7.62,3.22,11.81,3.22s8.29-1.1,11.98-3.3c3.69-2.2,6.66-5.34,8.92-9.42,2.26-4.07,3.39-8.92,3.39-14.54s-1.13-10.27-3.39-14.29Z"/>
          <path class="st4" d="M646.4,544.19c4.79-2.75,10.27-4.13,16.44-4.13v24.28h-6.11c-7.27,0-12.75,1.71-16.44,5.12-3.69,3.41-5.54,9.36-5.54,17.84v45.59h-23.13v-91.52h23.13v14.21c2.97-4.85,6.86-8.64,11.65-11.4Z"/>
          <rect class="st4" x="678.36" y="541.38" width="23.13" height="91.52"/>
          <path class="st4" d="M801.44,550.39c6.72,6.88,10.08,16.49,10.08,28.83v53.69h-23.13v-50.55c0-7.27-1.82-12.86-5.45-16.77-3.63-3.91-8.59-5.86-14.87-5.86s-11.43,1.96-15.12,5.86c-3.69,3.91-5.53,9.5-5.53,16.77v50.55h-23.13v-91.52h23.13v11.4c3.08-3.97,7.02-7.08,11.81-9.33,4.79-2.26,10.05-3.39,15.78-3.39,10.9,0,19.71,3.44,26.43,10.33Z"/>
          <path class="st4" d="M860.41,560.38v44.27c0,3.08.74,5.31,2.23,6.69,1.49,1.38,3.99,2.07,7.52,2.07h10.74v19.49h-14.54c-19.49,0-29.24-9.47-29.24-28.41v-44.11h-10.9v-19h10.9v-22.63h23.29v22.63h20.48v19h-20.48Z"/>
        </g>
      </g>
    </g>
  </g>
</svg>